<svg width="32" height="32" viewBox="0 0 32 32" fill="none" xmlns="http://www.w3.org/2000/svg">
<path d="M16 26.4C16 26.4 28 20.6533 28 11.92C27.9896 10.493 27.4956 9.11168 26.5986 8.00178C25.7016 6.89188 24.4547 6.119 23.0616 5.80943C21.6685 5.49986 20.2117 5.6719 18.929 6.29743C17.6464 6.92297 16.6138 7.96503 16 9.25334C15.3862 7.96503 14.3536 6.92297 13.071 6.29743C11.7883 5.6719 10.3315 5.49986 8.9384 5.80943C7.54533 6.119 6.29842 6.89188 5.40143 8.00178C4.50444 9.11168 4.01039 10.493 4 11.92C4 20.6533 16 26.4 16 26.4Z" stroke="#1C1C1E" stroke-linecap="round" stroke-linejoin="round"/>
</svg>
