<svg width="56" height="56" viewBox="0 0 56 56" fill="none" xmlns="http://www.w3.org/2000/svg">
<path d="M28 18.375C26.0964 18.375 24.2355 18.9395 22.6526 19.9971C21.0698 21.0547 19.8362 22.5579 19.1077 24.3167C18.3792 26.0754 18.1886 28.0107 18.5599 29.8777C18.9313 31.7448 19.848 33.4598 21.1941 34.8059C22.5402 36.152 24.2552 37.0687 26.1223 37.4401C27.9893 37.8114 29.9246 37.6208 31.6833 36.8923C33.4421 36.1638 34.9453 34.9302 36.0029 33.3474C37.0605 31.7645 37.625 29.9036 37.625 28C37.625 25.4473 36.6109 22.9991 34.8059 21.1941C33.0009 19.3891 30.5527 18.375 28 18.375ZM28 35.875C26.4425 35.875 24.9199 35.4131 23.6249 34.5478C22.3298 33.6825 21.3205 32.4526 20.7244 31.0136C20.1284 29.5747 19.9725 27.9913 20.2763 26.4637C20.5802 24.9361 21.3302 23.5329 22.4315 22.4315C23.5329 21.3302 24.9361 20.5802 26.4637 20.2763C27.9913 19.9725 29.5747 20.1284 31.0136 20.7244C32.4526 21.3205 33.6825 22.3298 34.5478 23.6249C35.4131 24.9199 35.875 26.4425 35.875 28C35.875 30.0886 35.0453 32.0916 33.5685 33.5685C32.0916 35.0453 30.0886 35.875 28 35.875V35.875ZM37.625 7H18.375C15.3582 7 12.4649 8.19843 10.3317 10.3317C8.19843 12.4649 7 15.3582 7 18.375V37.625C7 39.1188 7.29422 40.5979 7.86587 41.978C8.43752 43.3581 9.27539 44.6121 10.3317 45.6683C12.4649 47.8016 15.3582 49 18.375 49H37.625C39.1188 49 40.5979 48.7058 41.978 48.1341C43.3581 47.5625 44.6121 46.7246 45.6683 45.6683C46.7246 44.6121 47.5625 43.3581 48.1341 41.978C48.7058 40.5979 49 39.1188 49 37.625V18.375C49 16.8812 48.7058 15.4021 48.1341 14.022C47.5625 12.6419 46.7246 11.3879 45.6683 10.3317C44.6121 9.27539 43.3581 8.43752 41.978 7.86587C40.5979 7.29422 39.1188 7 37.625 7V7ZM47.25 37.625C47.25 40.1777 46.2359 42.6259 44.4309 44.4309C42.6259 46.2359 40.1777 47.25 37.625 47.25H18.375C15.8223 47.25 13.3741 46.2359 11.5691 44.4309C9.76406 42.6259 8.75 40.1777 8.75 37.625V18.375C8.75 15.8223 9.76406 13.3741 11.5691 11.5691C13.3741 9.76406 15.8223 8.75 18.375 8.75H37.625C40.1777 8.75 42.6259 9.76406 44.4309 11.5691C46.2359 13.3741 47.25 15.8223 47.25 18.375V37.625ZM41.125 16.625C41.125 16.9711 41.0224 17.3095 40.8301 17.5972C40.6378 17.885 40.3645 18.1093 40.0447 18.2418C39.7249 18.3742 39.3731 18.4089 39.0336 18.3414C38.6941 18.2739 38.3823 18.1072 38.1376 17.8624C37.8928 17.6177 37.7261 17.3059 37.6586 16.9664C37.5911 16.6269 37.6258 16.2751 37.7582 15.9553C37.8907 15.6355 38.115 15.3622 38.4028 15.1699C38.6905 14.9776 39.0289 14.875 39.375 14.875C39.8391 14.875 40.2842 15.0594 40.6124 15.3876C40.9406 15.7158 41.125 16.1609 41.125 16.625Z" fill="#1E1E1E"/>
</svg>
