<svg width="113" height="31" viewBox="0 0 113 31" fill="none" xmlns="http://www.w3.org/2000/svg">
<path d="M1.98636 12.088C1.96503 14.008 2.12503 15.8533 2.46636 17.624C2.82903 19.3946 3.21303 20.9733 3.61836 22.36L3.81036 23.032L0.0663628 23L0.0343628 0.599976L3.87436 0.631975C3.74636 1.14398 3.6077 1.66664 3.45836 2.19998C3.33036 2.71198 3.20236 3.23464 3.07436 3.76798C3.97036 2.78664 5.05836 2.03998 6.33836 1.52798C7.6397 0.994643 8.9197 0.727976 10.1784 0.727976C11.309 0.727976 12.3117 0.951976 13.1864 1.39998C14.0824 1.82664 14.6904 2.51998 15.0104 3.47998C15.309 4.35464 15.309 5.25064 15.0104 6.16798C14.733 7.08531 14.3704 8.00264 13.9224 8.91998C13.4744 9.81598 13.0584 10.7226 12.6744 11.64C12.3117 12.536 12.1944 13.4106 12.3224 14.264C12.493 15.352 12.941 16.632 13.6664 18.104C14.3917 19.5546 15.5544 21.1866 17.1544 23H13.3144C12.6317 22.1466 12.109 21.368 11.7464 20.664C11.3837 19.96 11.117 19.32 10.9464 18.744C10.7757 18.1466 10.669 17.592 10.6264 17.08C10.5837 16.568 10.541 16.088 10.4984 15.64C10.3917 14.5093 10.4664 13.4746 10.7224 12.536C10.9784 11.576 11.2557 10.6586 11.5544 9.78398C11.853 8.90931 12.0877 8.05598 12.2584 7.22398C12.4504 6.39198 12.4184 5.52798 12.1624 4.63198C11.885 3.69331 11.4264 2.99998 10.7864 2.55198C10.1677 2.10398 9.4317 1.87998 8.57836 1.87998C7.7037 1.87998 6.7757 2.11464 5.79436 2.58398C4.81303 3.03198 3.84236 3.70398 2.88236 4.59998C2.62636 5.73064 2.41303 6.86131 2.24236 7.99198C2.09303 9.12264 2.0077 10.2746 1.98636 11.448V12.088Z" fill="black"/>
<path d="M33.7084 23H29.8364L29.9004 20.152C28.9404 21.24 27.799 22.04 26.4764 22.552C25.1537 23.064 23.831 23.32 22.5084 23.32C21.911 23.32 21.3457 23.2453 20.8124 23.096C20.279 22.9466 19.8097 22.7013 19.4044 22.36C18.999 22.0186 18.679 21.5706 18.4444 21.016C18.231 20.4613 18.1244 19.7786 18.1244 18.968C18.1244 17.6453 18.4444 16.568 19.0844 15.736C19.7457 14.8826 20.5564 14.2213 21.5164 13.752C22.4764 13.2826 23.5004 12.9626 24.5884 12.792C25.6977 12.6213 26.6897 12.536 27.5644 12.536C28.2044 12.536 28.7484 12.568 29.1964 12.632C29.6444 12.696 29.9324 12.76 30.0604 12.824C30.1457 11.9706 30.103 11.2133 29.9324 10.552C29.7617 9.86931 29.5057 9.30398 29.1644 8.85598C28.8444 8.38664 28.439 8.02398 27.9484 7.76798C27.479 7.51198 26.9884 7.38398 26.4764 7.38398C25.9004 7.36264 25.4524 7.49064 25.1324 7.76798C24.8124 8.04531 24.5457 8.39731 24.3324 8.82398C24.119 9.22931 23.9164 9.66664 23.7244 10.136C23.5537 10.6053 23.319 11.0426 23.0204 11.448C22.743 11.8533 22.359 12.1946 21.8684 12.472C21.3777 12.728 20.7164 12.8346 19.8844 12.792L19.7884 8.95198C20.151 8.73864 20.5244 8.50398 20.9084 8.24798C21.3137 7.97064 21.783 7.72531 22.3164 7.51198C22.8497 7.27731 23.4577 7.08531 24.1404 6.93598C24.8444 6.78664 25.6657 6.71198 26.6044 6.71198C27.0097 6.71198 27.479 6.73331 28.0124 6.77598C28.567 6.81864 29.1324 6.89331 29.7084 6.99998C30.2844 7.08531 30.839 7.22398 31.3724 7.41598C31.927 7.60798 32.3964 7.86398 32.7804 8.18398C33.1857 8.48264 33.4737 8.84531 33.6444 9.27198C33.8364 9.69864 33.8577 10.2106 33.7084 10.808C33.4524 11.8106 33.1857 12.7706 32.9084 13.688C32.6524 14.6053 32.471 15.544 32.3644 16.504C32.279 17.4426 32.3217 18.4453 32.4924 19.512C32.663 20.5573 33.0684 21.72 33.7084 23ZM30.0604 13.432C29.8257 13.3893 29.5804 13.3573 29.3244 13.336C29.0684 13.3146 28.8124 13.304 28.5564 13.304C27.767 13.304 26.9777 13.4106 26.1884 13.624C25.4204 13.816 24.727 14.1253 24.1084 14.552C23.4897 14.9786 22.9777 15.5226 22.5724 16.184C22.1884 16.824 21.9964 17.6026 21.9964 18.52C21.9964 19.16 22.167 19.7786 22.5084 20.376C22.871 20.9733 23.4044 21.3466 24.1084 21.496C24.791 21.624 25.431 21.6133 26.0284 21.464C26.6257 21.3146 27.1697 21.1013 27.6604 20.824C28.1724 20.5253 28.6204 20.216 29.0044 19.896C29.3884 19.5546 29.6977 19.2773 29.9324 19.064L30.0604 13.432Z" fill="black"/>
<path d="M38.9651 13.176C38.9864 14.3706 39.1464 15.6826 39.4451 17.112C39.7651 18.52 40.1384 20.088 40.5651 21.816C40.7784 21.7946 40.9918 21.6346 41.2051 21.336C41.4398 21.016 41.6851 20.6746 41.9411 20.312C42.1971 19.928 42.4638 19.5866 42.7411 19.288C43.0398 18.968 43.3598 18.808 43.7011 18.808C44.0638 18.808 44.4264 19.032 44.7891 19.48V23.32C44.5544 22.8293 44.3198 22.4986 44.0851 22.328C43.8504 22.1573 43.6158 22.072 43.3811 22.072C43.1678 22.072 42.9438 22.1253 42.7091 22.232C42.4744 22.3386 42.2398 22.456 42.0051 22.584C41.7918 22.712 41.5678 22.8293 41.3331 22.936C41.1198 23.0213 40.9171 23.0426 40.7251 23L37.0131 23.032L37.0451 7.63998H35.0931V6.99998H37.0451V4.79198L40.7891 4.75998L40.5971 5.27198C40.5118 5.48531 40.4158 5.74131 40.3091 6.03998C40.2238 6.31731 40.1278 6.63731 40.0211 6.99998H42.1331V7.63998H39.8291C39.5944 8.45064 39.3811 9.34664 39.1891 10.328C39.0184 11.288 38.9438 12.2373 38.9651 13.176Z" fill="black"/>
<path d="M58.4111 14.232C58.4111 13.5706 58.3471 12.8986 58.2191 12.216C58.1124 11.512 57.9738 10.8506 57.8031 10.232C57.6324 9.61331 57.4511 9.04798 57.2591 8.53598C57.0671 8.02398 56.9071 7.60798 56.7791 7.28798L56.5871 6.83998L60.3311 6.87198L60.3631 22.872L56.5231 22.84C56.6084 22.52 56.6938 22.2 56.7791 21.88C56.8644 21.56 56.9498 21.2506 57.0351 20.952C56.1391 21.7626 55.1364 22.3813 54.0271 22.808C52.9391 23.2133 51.8724 23.416 50.8271 23.416C49.7818 23.416 48.8431 23.2026 48.0111 22.776C47.1791 22.328 46.6031 21.624 46.2831 20.664C46.0698 20.0026 46.0271 19.3946 46.1551 18.84C46.2831 18.264 46.4858 17.7306 46.7631 17.24C47.0618 16.728 47.3818 16.2373 47.7231 15.768C48.0644 15.2986 48.3311 14.84 48.5231 14.392C48.7791 13.816 48.7898 13.1546 48.5551 12.408C48.3418 11.6613 48.0004 10.936 47.5311 10.232C47.0831 9.50664 46.5711 8.84531 45.9951 8.24798C45.4404 7.62931 44.9498 7.17064 44.5231 6.87198H48.3631C49.1951 7.31998 49.8351 7.83198 50.2831 8.40798C50.7311 8.98398 51.0298 9.60264 51.1791 10.264C51.3284 10.9253 51.3284 11.6293 51.1791 12.376C51.0511 13.1226 50.8164 13.9013 50.4751 14.712C50.3258 15.0533 50.1871 15.3946 50.0591 15.736C49.9311 16.0773 49.8244 16.44 49.7391 16.824C49.6751 17.208 49.6431 17.6133 49.6431 18.04C49.6644 18.4453 49.7498 18.8933 49.8991 19.384C50.1978 20.344 50.6244 21.0586 51.1791 21.528C51.7338 21.9973 52.3844 22.232 53.1311 22.232C54.4538 22.232 55.8298 21.5386 57.2591 20.152C57.5791 19 57.8458 17.944 58.0591 16.984C58.2724 16.0026 58.3898 15.0853 58.4111 14.232Z" fill="black"/>
<path d="M63.9239 15.64C63.9239 16.3013 63.9772 16.984 64.0839 17.688C64.2119 18.3706 64.3612 19.0213 64.5319 19.64C64.7025 20.2586 64.8839 20.824 65.0759 21.336C65.2679 21.848 65.4279 22.264 65.5559 22.584L65.7479 23.032L62.0039 23L61.9719 6.99998L65.8119 7.03198C65.7479 7.26664 65.6839 7.50131 65.6199 7.73598C65.5559 7.97064 65.4919 8.20531 65.4279 8.43998C65.7479 8.11998 66.0999 7.95998 66.4839 7.95998C66.7825 7.95998 67.0812 8.01331 67.3799 8.11998C67.6785 8.22664 67.9772 8.27998 68.2759 8.27998C68.5745 8.27998 68.8732 8.17331 69.1719 7.95998C69.4705 7.74664 69.7692 7.33064 70.0679 6.71198V10.552C69.6199 11.0853 69.1932 11.352 68.7879 11.352C68.4892 11.352 68.2119 11.2453 67.9559 11.032C67.6999 10.7973 67.4545 10.552 67.2199 10.296C66.9852 10.0186 66.7612 9.77331 66.5479 9.55998C66.3345 9.32531 66.1212 9.20798 65.9079 9.20798C65.5879 9.20798 65.2785 9.51731 64.9799 10.136C64.6812 11.224 64.4359 12.216 64.2439 13.112C64.0519 13.9866 63.9452 14.8293 63.9239 15.64Z" fill="black"/>
<path d="M85.7396 23H81.8676L81.9316 20.152C80.9716 21.24 79.8303 22.04 78.5076 22.552C77.1849 23.064 75.8623 23.32 74.5396 23.32C73.9423 23.32 73.3769 23.2453 72.8436 23.096C72.3103 22.9466 71.8409 22.7013 71.4356 22.36C71.0303 22.0186 70.7103 21.5706 70.4756 21.016C70.2623 20.4613 70.1556 19.7786 70.1556 18.968C70.1556 17.6453 70.4756 16.568 71.1156 15.736C71.7769 14.8826 72.5876 14.2213 73.5476 13.752C74.5076 13.2826 75.5316 12.9626 76.6196 12.792C77.7289 12.6213 78.7209 12.536 79.5956 12.536C80.2356 12.536 80.7796 12.568 81.2276 12.632C81.6756 12.696 81.9636 12.76 82.0916 12.824C82.1769 11.9706 82.1343 11.2133 81.9636 10.552C81.7929 9.86931 81.5369 9.30398 81.1956 8.85598C80.8756 8.38664 80.4703 8.02398 79.9796 7.76798C79.5103 7.51198 79.0196 7.38398 78.5076 7.38398C77.9316 7.36264 77.4836 7.49064 77.1636 7.76798C76.8436 8.04531 76.577 8.39731 76.3636 8.82398C76.1503 9.22931 75.9476 9.66664 75.7556 10.136C75.5849 10.6053 75.3503 11.0426 75.0516 11.448C74.7743 11.8533 74.3903 12.1946 73.8996 12.472C73.4089 12.728 72.7476 12.8346 71.9156 12.792L71.8196 8.95198C72.1823 8.73864 72.5556 8.50398 72.9396 8.24798C73.3449 7.97064 73.8143 7.72531 74.3476 7.51198C74.8809 7.27731 75.4889 7.08531 76.1716 6.93598C76.8756 6.78664 77.6969 6.71198 78.6356 6.71198C79.0409 6.71198 79.5103 6.73331 80.0436 6.77598C80.5983 6.81864 81.1636 6.89331 81.7396 6.99998C82.3156 7.08531 82.8703 7.22398 83.4036 7.41598C83.9583 7.60798 84.4276 7.86398 84.8116 8.18398C85.2169 8.48264 85.5049 8.84531 85.6756 9.27198C85.8676 9.69864 85.8889 10.2106 85.7396 10.808C85.4836 11.8106 85.2169 12.7706 84.9396 13.688C84.6836 14.6053 84.5023 15.544 84.3956 16.504C84.3103 17.4426 84.3529 18.4453 84.5236 19.512C84.6943 20.5573 85.0996 21.72 85.7396 23ZM82.0916 13.432C81.8569 13.3893 81.6116 13.3573 81.3556 13.336C81.0996 13.3146 80.8436 13.304 80.5876 13.304C79.7983 13.304 79.0089 13.4106 78.2196 13.624C77.4516 13.816 76.7583 14.1253 76.1396 14.552C75.5209 14.9786 75.0089 15.5226 74.6036 16.184C74.2196 16.824 74.0276 17.6026 74.0276 18.52C74.0276 19.16 74.1983 19.7786 74.5396 20.376C74.9023 20.9733 75.4356 21.3466 76.1396 21.496C76.8223 21.624 77.4623 21.6133 78.0596 21.464C78.6569 21.3146 79.2009 21.1013 79.6916 20.824C80.2036 20.5253 80.6516 20.216 81.0356 19.896C81.4196 19.5546 81.7289 19.2773 81.9636 19.064L82.0916 13.432Z" fill="black"/>
<path d="M89.2364 12.088C89.215 14.008 89.375 15.8533 89.7164 17.624C90.079 19.3946 90.463 20.9733 90.8684 22.36L91.0604 23.032L87.3164 23L87.2844 0.599976L91.1244 0.631975C90.655 2.42398 90.2284 4.20531 89.8444 5.97598C89.4817 7.74664 89.279 9.57064 89.2364 11.448V12.088Z" fill="black"/>
<path d="M94.7989 12.088C94.7775 14.008 94.9375 15.8533 95.2789 17.624C95.6415 19.3946 96.0255 20.9733 96.4309 22.36L96.6229 23.032L92.8789 23L92.8469 0.599976L96.6869 0.631975C96.2175 2.42398 95.7909 4.20531 95.4069 5.97598C95.0442 7.74664 94.8415 9.57064 94.7989 11.448V12.088Z" fill="black"/>
<path d="M107.096 23C107.01 23.2346 106.872 23.5333 106.68 23.896C106.488 24.28 106.296 24.6533 106.104 25.016C105.933 25.4 105.773 25.7413 105.624 26.04C105.474 26.3386 105.378 26.52 105.336 26.584C104.696 27.864 103.917 28.8133 103 29.432C102.104 30.0506 101.229 30.4773 100.376 30.712C99.3943 30.968 98.3809 31.0533 97.3356 30.968V27.128C97.8263 27.1066 98.2956 27.1493 98.7436 27.256C99.1916 27.384 99.6183 27.5226 100.024 27.672C100.429 27.8426 100.824 27.992 101.208 28.12C101.592 28.2693 101.965 28.344 102.328 28.344C102.754 28.344 103.17 28.184 103.576 27.864C104.002 27.5653 104.418 27.0106 104.824 26.2L106.392 23C105.858 22.9786 105.282 22.9466 104.664 22.904C104.066 22.84 103.49 22.7546 102.936 22.648C102.402 22.52 101.912 22.36 101.464 22.168C101.016 21.9546 100.674 21.688 100.44 21.368C100.098 20.92 99.9916 20.408 100.12 19.832C100.248 19.256 100.45 18.648 100.728 18.008C101.005 17.368 101.272 16.728 101.528 16.088C101.805 15.4266 101.922 14.7973 101.88 14.2C101.837 13.6453 101.634 13.0266 101.272 12.344C100.93 11.64 100.525 10.9573 100.056 10.296C99.5863 9.61331 99.1063 8.98398 98.6156 8.40798C98.1249 7.81064 97.7196 7.34131 97.3996 6.99998H101.24C102.178 8.15198 102.861 9.29331 103.288 10.424C103.736 11.5546 103.928 12.792 103.864 14.136C103.821 14.9893 103.714 15.8 103.544 16.568C103.373 17.3146 103.32 18.0293 103.384 18.712C103.448 19.3733 103.714 20.0133 104.184 20.632C104.653 21.2293 105.496 21.8053 106.712 22.36C107.117 21.5493 107.522 20.792 107.928 20.088C108.354 19.384 108.717 18.68 109.016 17.976C109.336 17.2506 109.581 16.5146 109.752 15.768C109.922 15.0213 109.976 14.2106 109.912 13.336C109.848 12.4613 109.634 11.512 109.272 10.488C108.909 9.44264 108.354 8.27998 107.608 6.99998H111.448C111.682 7.76798 111.853 8.48264 111.96 9.14398C112.066 9.78398 112.109 10.4026 112.088 11C112.088 11.5973 112.013 12.1946 111.864 12.792C111.736 13.3893 111.533 14.0293 111.256 14.712C110.936 15.544 110.616 16.2906 110.296 16.952C109.976 17.6133 109.645 18.264 109.304 18.904C108.962 19.5226 108.61 20.1626 108.248 20.824C107.885 21.464 107.501 22.1893 107.096 23Z" fill="black"/>
</svg>
