<svg width="7005" height="1900" viewBox="0 0 7005 1900" fill="none" xmlns="http://www.w3.org/2000/svg">
<path d="M122.648 718C121.315 838 131.315 953.333 152.648 1064C175.315 1174.67 199.315 1273.33 224.648 1360L236.648 1402L2.64844 1400L0.648438 0L240.648 1.99997C232.648 34 223.982 66.6667 214.648 100C206.648 132 198.648 164.667 190.648 198C246.648 136.667 314.648 90.0001 394.648 58.0001C475.982 24.6667 555.982 8.00002 634.648 8.00002C705.315 8.00002 767.982 22 822.648 50.0001C878.648 76.6667 916.648 120 936.648 180C955.315 234.667 955.315 290.667 936.648 348C919.315 405.333 896.648 462.667 868.648 520C840.649 576 814.649 632.667 790.648 690C767.982 746 760.648 800.667 768.648 854C779.315 922 807.315 1002 852.648 1094C897.982 1184.67 970.648 1286.67 1070.65 1400H830.648C787.982 1346.67 755.315 1298 732.648 1254C709.982 1210 693.315 1170 682.648 1134C671.982 1096.67 665.315 1062 662.648 1030C659.982 998 657.315 968 654.648 940C647.982 869.333 652.648 804.667 668.648 746C684.648 686 701.982 628.667 720.648 574C739.315 519.333 753.982 466 764.648 414C776.648 362 774.648 308 758.648 252C741.315 193.333 712.648 150 672.648 122C633.982 94 587.982 80 534.648 80C479.982 80 421.982 94.6667 360.648 124C299.315 152 238.648 194 178.648 250C162.648 320.667 149.315 391.333 138.648 462C129.315 532.667 123.982 604.667 122.648 678V718Z" fill="black"/>
<path d="M2105.27 1400H1863.27L1867.27 1222C1807.27 1290 1735.94 1340 1653.27 1372C1570.61 1404 1487.94 1420 1405.27 1420C1367.94 1420 1332.61 1415.33 1299.27 1406C1265.94 1396.67 1236.61 1381.33 1211.27 1360C1185.94 1338.67 1165.94 1310.67 1151.27 1276C1137.94 1241.33 1131.27 1198.67 1131.27 1148C1131.27 1065.33 1151.27 998 1191.27 946C1232.61 892.667 1283.27 851.333 1343.27 822C1403.27 792.667 1467.27 772.667 1535.27 762C1604.61 751.333 1666.61 746 1721.27 746C1761.27 746 1795.27 748 1823.27 752C1851.27 756 1869.27 760 1877.27 764C1882.61 710.667 1879.94 663.333 1869.27 622C1858.61 579.333 1842.61 544 1821.27 516C1801.27 486.667 1775.94 464 1745.27 448C1715.94 432 1685.27 424 1653.27 424C1617.27 422.667 1589.27 430.667 1569.27 448C1549.27 465.333 1532.61 487.333 1519.27 514C1505.94 539.333 1493.27 566.667 1481.27 596C1470.61 625.333 1455.94 652.667 1437.27 678C1419.94 703.333 1395.94 724.667 1365.27 742C1334.61 758 1293.27 764.667 1241.27 762L1235.27 522C1257.94 508.667 1281.27 494 1305.27 478C1330.61 460.667 1359.94 445.333 1393.27 432C1426.61 417.333 1464.61 405.333 1507.27 396C1551.27 386.667 1602.61 382 1661.27 382C1686.61 382 1715.94 383.333 1749.27 386C1783.94 388.667 1819.27 393.333 1855.27 400C1891.27 405.333 1925.94 414 1959.27 426C1993.94 438 2023.27 454 2047.27 474C2072.61 492.667 2090.61 515.333 2101.27 542C2113.27 568.667 2114.61 600.667 2105.27 638C2089.27 700.667 2072.61 760.667 2055.27 818C2039.27 875.333 2027.94 934 2021.27 994C2015.94 1052.67 2018.61 1115.33 2029.27 1182C2039.94 1247.33 2065.27 1320 2105.27 1400ZM1877.27 802C1862.61 799.333 1847.27 797.333 1831.27 796C1815.27 794.667 1799.27 794 1783.27 794C1733.94 794 1684.61 800.667 1635.27 814C1587.27 826 1543.94 845.333 1505.27 872C1466.61 898.667 1434.61 932.667 1409.27 974C1385.27 1014 1373.27 1062.67 1373.27 1120C1373.27 1160 1383.94 1198.67 1405.27 1236C1427.94 1273.33 1461.27 1296.67 1505.27 1306C1547.94 1314 1587.94 1313.33 1625.27 1304C1662.61 1294.67 1696.61 1281.33 1727.27 1264C1759.27 1245.33 1787.27 1226 1811.27 1206C1835.27 1184.67 1854.61 1167.33 1869.27 1154L1877.27 802Z" fill="black"/>
<path d="M2433.82 786C2435.15 860.667 2445.15 942.667 2463.82 1032C2483.82 1120 2507.15 1218 2533.82 1326C2547.15 1324.67 2560.49 1314.67 2573.82 1296C2588.49 1276 2603.82 1254.67 2619.82 1232C2635.82 1208 2652.49 1186.67 2669.82 1168C2688.49 1148 2708.49 1138 2729.82 1138C2752.49 1138 2775.15 1152 2797.82 1180V1420C2783.15 1389.33 2768.49 1368.67 2753.82 1358C2739.15 1347.33 2724.49 1342 2709.82 1342C2696.49 1342 2682.49 1345.33 2667.82 1352C2653.15 1358.67 2638.49 1366 2623.82 1374C2610.49 1382 2596.49 1389.33 2581.82 1396C2568.49 1401.33 2555.82 1402.67 2543.82 1400L2311.82 1402L2313.82 440H2191.82V400H2313.82V262L2547.82 260L2535.82 292C2530.49 305.333 2524.49 321.333 2517.82 340C2512.49 357.333 2506.49 377.333 2499.82 400H2631.82V440H2487.82C2473.15 490.667 2459.82 546.667 2447.82 608C2437.15 668 2432.49 727.333 2433.82 786Z" fill="black"/>
<path d="M3649.2 852C3649.2 810.667 3645.2 768.667 3637.2 726C3630.53 682 3621.86 640.667 3611.2 602C3600.53 563.333 3589.2 528 3577.2 496C3565.2 464 3555.2 438 3547.2 418L3535.2 390L3769.2 392L3771.2 1392L3531.2 1390C3536.53 1370 3541.86 1350 3547.2 1330C3552.53 1310 3557.86 1290.67 3563.2 1272C3507.2 1322.67 3444.53 1361.33 3375.2 1388C3307.2 1413.33 3240.53 1426 3175.2 1426C3109.86 1426 3051.2 1412.67 2999.2 1386C2947.2 1358 2911.2 1314 2891.2 1254C2877.86 1212.67 2875.2 1174.67 2883.2 1140C2891.2 1104 2903.86 1070.67 2921.2 1040C2939.86 1008 2959.86 977.333 2981.2 948C3002.53 918.667 3019.2 890 3031.2 862C3047.2 826 3047.86 784.667 3033.2 738C3019.86 691.333 2998.53 646 2969.2 602C2941.2 556.667 2909.2 515.333 2873.2 478C2838.53 439.333 2807.86 410.667 2781.2 392H3021.2C3073.2 420 3113.2 452 3141.2 488C3169.2 524 3187.86 562.667 3197.2 604C3206.53 645.333 3206.53 689.333 3197.2 736C3189.2 782.667 3174.53 831.333 3153.2 882C3143.86 903.333 3135.2 924.667 3127.2 946C3119.2 967.333 3112.53 990 3107.2 1014C3103.2 1038 3101.2 1063.33 3101.2 1090C3102.53 1115.33 3107.86 1143.33 3117.2 1174C3135.86 1234 3162.53 1278.67 3197.2 1308C3231.86 1337.33 3272.53 1352 3319.2 1352C3401.86 1352 3487.86 1308.67 3577.2 1222C3597.2 1150 3613.86 1084 3627.2 1024C3640.53 962.667 3647.86 905.333 3649.2 852Z" fill="black"/>
<path d="M3993.74 940C3993.74 981.333 3997.08 1024 4003.74 1068C4011.74 1110.67 4021.08 1151.33 4031.74 1190C4042.41 1228.67 4053.74 1264 4065.74 1296C4077.74 1328 4087.74 1354 4095.74 1374L4107.74 1402L3873.74 1400L3871.74 400L4111.74 402C4107.74 416.667 4103.74 431.333 4099.74 446C4095.74 460.667 4091.74 475.333 4087.74 490C4107.74 470 4129.74 460 4153.74 460C4172.41 460 4191.08 463.333 4209.74 470C4228.41 476.667 4247.08 480 4265.74 480C4284.41 480 4303.08 473.333 4321.74 460C4340.41 446.667 4359.08 420.667 4377.74 382V622C4349.74 655.333 4323.08 672 4297.74 672C4279.08 672 4261.74 665.333 4245.74 652C4229.74 637.333 4214.41 622 4199.74 606C4185.08 588.667 4171.08 573.333 4157.74 560C4144.41 545.333 4131.08 538 4117.74 538C4097.74 538 4078.41 557.333 4059.74 596C4041.08 664 4025.74 726 4013.74 782C4001.74 836.667 3995.08 889.333 3993.74 940Z" fill="black"/>
<path d="M5357.23 1400H5115.23L5119.23 1222C5059.23 1290 4987.89 1340 4905.23 1372C4822.56 1404 4739.89 1420 4657.23 1420C4619.89 1420 4584.56 1415.33 4551.23 1406C4517.89 1396.67 4488.56 1381.33 4463.23 1360C4437.89 1338.67 4417.89 1310.67 4403.23 1276C4389.89 1241.33 4383.23 1198.67 4383.23 1148C4383.23 1065.33 4403.23 998 4443.23 946C4484.56 892.667 4535.23 851.333 4595.23 822C4655.23 792.667 4719.23 772.667 4787.23 762C4856.56 751.333 4918.56 746 4973.23 746C5013.23 746 5047.23 748 5075.23 752C5103.23 756 5121.23 760 5129.23 764C5134.56 710.667 5131.89 663.333 5121.23 622C5110.56 579.333 5094.56 544 5073.23 516C5053.23 486.667 5027.89 464 4997.23 448C4967.89 432 4937.23 424 4905.23 424C4869.23 422.667 4841.23 430.667 4821.23 448C4801.23 465.333 4784.56 487.333 4771.23 514C4757.89 539.333 4745.23 566.667 4733.23 596C4722.56 625.333 4707.89 652.667 4689.23 678C4671.89 703.333 4647.89 724.667 4617.23 742C4586.56 758 4545.23 764.667 4493.23 762L4487.23 522C4509.89 508.667 4533.23 494 4557.23 478C4582.56 460.667 4611.89 445.333 4645.23 432C4678.56 417.333 4716.56 405.333 4759.23 396C4803.23 386.667 4854.56 382 4913.23 382C4938.56 382 4967.89 383.333 5001.23 386C5035.89 388.667 5071.23 393.333 5107.23 400C5143.23 405.333 5177.89 414 5211.23 426C5245.89 438 5275.23 454 5299.23 474C5324.56 492.667 5342.56 515.333 5353.23 542C5365.23 568.667 5366.56 600.667 5357.23 638C5341.23 700.667 5324.56 760.667 5307.23 818C5291.23 875.333 5279.89 934 5273.23 994C5267.89 1052.67 5270.56 1115.33 5281.23 1182C5291.89 1247.33 5317.23 1320 5357.23 1400ZM5129.23 802C5114.56 799.333 5099.23 797.333 5083.23 796C5067.23 794.667 5051.23 794 5035.23 794C4985.89 794 4936.56 800.667 4887.23 814C4839.23 826 4795.89 845.333 4757.23 872C4718.56 898.667 4686.56 932.667 4661.23 974C4637.23 1014 4625.23 1062.67 4625.23 1120C4625.23 1160 4635.89 1198.67 4657.23 1236C4679.89 1273.33 4713.23 1296.67 4757.23 1306C4799.89 1314 4839.89 1313.33 4877.23 1304C4914.56 1294.67 4948.56 1281.33 4979.23 1264C5011.23 1245.33 5039.23 1226 5063.23 1206C5087.23 1184.67 5106.56 1167.33 5121.23 1154L5129.23 802Z" fill="black"/>
<path d="M5575.77 718C5574.44 838 5584.44 953.333 5605.77 1064C5628.44 1174.67 5652.44 1273.33 5677.77 1360L5689.77 1402L5455.77 1400L5453.77 0L5693.77 1.99997C5664.44 114 5637.77 225.333 5613.77 336C5591.11 446.667 5578.44 560.667 5575.77 678V718Z" fill="black"/>
<path d="M5923.43 718C5922.1 838 5932.1 953.333 5953.43 1064C5976.1 1174.67 6000.1 1273.33 6025.43 1360L6037.43 1402L5803.43 1400L5801.43 0L6041.43 1.99997C6012.1 114 5985.43 225.333 5961.43 336C5938.76 446.667 5926.1 560.667 5923.43 678V718Z" fill="black"/>
<path d="M6691.98 1400C6686.64 1414.67 6677.98 1433.33 6665.98 1456C6653.98 1480 6641.98 1503.33 6629.98 1526C6619.31 1550 6609.31 1571.33 6599.98 1590C6590.64 1608.67 6584.64 1620 6581.98 1624C6541.98 1704 6493.31 1763.33 6435.98 1802C6379.98 1840.67 6325.31 1867.33 6271.98 1882C6210.64 1898 6147.31 1903.33 6081.98 1898V1658C6112.64 1656.67 6141.98 1659.33 6169.98 1666C6197.98 1674 6224.64 1682.67 6249.98 1692C6275.31 1702.67 6299.98 1712 6323.98 1720C6347.98 1729.33 6371.31 1734 6393.98 1734C6420.64 1734 6446.64 1724 6471.98 1704C6498.64 1685.33 6524.64 1650.67 6549.98 1600L6647.98 1400C6614.64 1398.67 6578.64 1396.67 6539.98 1394C6502.64 1390 6466.64 1384.67 6431.98 1378C6398.64 1370 6367.98 1360 6339.98 1348C6311.98 1334.67 6290.64 1318 6275.98 1298C6254.64 1270 6247.98 1238 6255.98 1202C6263.98 1166 6276.64 1128 6293.98 1088C6311.31 1048 6327.98 1008 6343.98 968C6361.31 926.667 6368.64 887.333 6365.98 850C6363.31 815.333 6350.64 776.667 6327.98 734C6306.64 690 6281.31 647.333 6251.98 606C6222.64 563.333 6192.64 524 6161.98 488C6131.31 450.667 6105.98 421.333 6085.98 400H6325.98C6384.64 472 6427.31 543.333 6453.98 614C6481.98 684.667 6493.98 762 6489.98 846C6487.31 899.333 6480.64 950 6469.98 998C6459.31 1044.67 6455.98 1089.33 6459.98 1132C6463.98 1173.33 6480.64 1213.33 6509.98 1252C6539.31 1289.33 6591.98 1325.33 6667.98 1360C6693.31 1309.33 6718.64 1262 6743.98 1218C6770.64 1174 6793.31 1130 6811.98 1086C6831.98 1040.67 6847.31 994.667 6857.98 948C6868.64 901.333 6871.98 850.667 6867.98 796C6863.98 741.333 6850.64 682 6827.98 618C6805.31 552.667 6770.64 480 6723.98 400H6963.98C6978.64 448 6989.31 492.667 6995.98 534C7002.64 574 7005.31 612.667 7003.98 650C7003.98 687.333 6999.31 724.667 6989.98 762C6981.98 799.333 6969.31 839.333 6951.98 882C6931.98 934 6911.98 980.667 6891.98 1022C6871.98 1063.33 6851.31 1104 6829.98 1144C6808.64 1182.67 6786.64 1222.67 6763.98 1264C6741.31 1304 6717.31 1349.33 6691.98 1400Z" fill="black"/>
</svg>

<svg width="246" height="67" viewBox="0 0 246 67" fill="none" xmlns="http://www.w3.org/2000/svg">
<path d="M4.8452 25.13C4.79853 29.33 5.14853 33.3667 5.8952 37.24C6.68853 41.1133 7.52853 44.5667 8.4152 47.6L8.8352 49.07L0.645195 49L0.575195 -3.33786e-06L8.9752 0.0699958C8.6952 1.19 8.39186 2.33333 8.0652 3.5C7.7852 4.62 7.5052 5.76333 7.2252 6.93C9.1852 4.78333 11.5652 3.15 14.3652 2.03C17.2119 0.863331 20.0119 0.279997 22.7652 0.279997C25.2385 0.279997 27.4319 0.769998 29.3452 1.75C31.3052 2.68333 32.6352 4.2 33.3352 6.3C33.9885 8.21333 33.9885 10.1733 33.3352 12.18C32.7285 14.1867 31.9352 16.1933 30.9552 18.2C29.9752 20.16 29.0652 22.1433 28.2252 24.15C27.4319 26.11 27.1752 28.0233 27.4552 29.89C27.8285 32.27 28.8085 35.07 30.3952 38.29C31.9819 41.4633 34.5252 45.0333 38.0252 49H29.6252C28.1319 47.1333 26.9885 45.43 26.1952 43.89C25.4019 42.35 24.8185 40.95 24.4452 39.69C24.0719 38.3833 23.8385 37.17 23.7452 36.05C23.6519 34.93 23.5585 33.88 23.4652 32.9C23.2319 30.4267 23.3952 28.1633 23.9552 26.11C24.5152 24.01 25.1219 22.0033 25.7752 20.09C26.4285 18.1767 26.9419 16.31 27.3152 14.49C27.7352 12.67 27.6652 10.78 27.1052 8.82C26.4985 6.76667 25.4952 5.25 24.0952 4.27C22.7419 3.29 21.1319 2.8 19.2652 2.8C17.3519 2.8 15.3219 3.31333 13.1752 4.34C11.0285 5.32 8.9052 6.79 6.8052 8.75C6.2452 11.2233 5.77853 13.6967 5.4052 16.17C5.07853 18.6433 4.89186 21.1633 4.8452 23.73V25.13ZM74.2371 49H65.7671L65.9071 42.77C63.8071 45.15 61.3104 46.9 58.4171 48.02C55.5237 49.14 52.6304 49.7 49.7371 49.7C48.4304 49.7 47.1937 49.5367 46.0271 49.21C44.8604 48.8833 43.8337 48.3467 42.9471 47.6C42.0604 46.8533 41.3604 45.8733 40.8471 44.66C40.3804 43.4467 40.1471 41.9533 40.1471 40.18C40.1471 37.2867 40.8471 34.93 42.2471 33.11C43.6937 31.2433 45.4671 29.7967 47.5671 28.77C49.6671 27.7433 51.9071 27.0433 54.2871 26.67C56.7137 26.2967 58.8837 26.11 60.7971 26.11C62.1971 26.11 63.3871 26.18 64.3671 26.32C65.3471 26.46 65.9771 26.6 66.2571 26.74C66.4437 24.8733 66.3504 23.2167 65.9771 21.77C65.6037 20.2767 65.0437 19.04 64.2971 18.06C63.5971 17.0333 62.7104 16.24 61.6371 15.68C60.6104 15.12 59.5371 14.84 58.4171 14.84C57.1571 14.7933 56.1771 15.0733 55.4771 15.68C54.7771 16.2867 54.1937 17.0567 53.7271 17.99C53.2604 18.8767 52.8171 19.8333 52.3971 20.86C52.0237 21.8867 51.5104 22.8433 50.8571 23.73C50.2504 24.6167 49.4104 25.3633 48.3371 25.97C47.2637 26.53 45.8171 26.7633 43.9971 26.67L43.7871 18.27C44.5804 17.8033 45.3971 17.29 46.2371 16.73C47.1237 16.1233 48.1504 15.5867 49.3171 15.12C50.4837 14.6067 51.8137 14.1867 53.3071 13.86C54.8471 13.5333 56.6437 13.37 58.6971 13.37C59.5837 13.37 60.6104 13.4167 61.7771 13.51C62.9904 13.6033 64.2271 13.7667 65.4871 14C66.7471 14.1867 67.9604 14.49 69.1271 14.91C70.3404 15.33 71.3671 15.89 72.2071 16.59C73.0937 17.2433 73.7237 18.0367 74.0971 18.97C74.5171 19.9033 74.5637 21.0233 74.2371 22.33C73.6771 24.5233 73.0937 26.6233 72.4871 28.63C71.9271 30.6367 71.5304 32.69 71.2971 34.79C71.1104 36.8433 71.2037 39.0367 71.5771 41.37C71.9504 43.6567 72.8371 46.2 74.2371 49ZM66.2571 28.07C65.7437 27.9767 65.2071 27.9067 64.6471 27.86C64.0871 27.8133 63.5271 27.79 62.9671 27.79C61.2404 27.79 59.5137 28.0233 57.7871 28.49C56.1071 28.91 54.5904 29.5867 53.2371 30.52C51.8837 31.4533 50.7637 32.6433 49.8771 34.09C49.0371 35.49 48.6171 37.1933 48.6171 39.2C48.6171 40.6 48.9904 41.9533 49.7371 43.26C50.5304 44.5667 51.6971 45.3833 53.2371 45.71C54.7304 45.99 56.1304 45.9667 57.4371 45.64C58.7437 45.3133 59.9337 44.8467 61.0071 44.24C62.1271 43.5867 63.1071 42.91 63.9471 42.21C64.7871 41.4633 65.4637 40.8567 65.9771 40.39L66.2571 28.07ZM85.7362 27.51C85.7829 30.1233 86.1329 32.9933 86.7862 36.12C87.4862 39.2 88.3029 42.63 89.2362 46.41C89.7029 46.3633 90.1695 46.0133 90.6362 45.36C91.1495 44.66 91.6862 43.9133 92.2462 43.12C92.8062 42.28 93.3895 41.5333 93.9962 40.88C94.6495 40.18 95.3495 39.83 96.0962 39.83C96.8895 39.83 97.6829 40.32 98.4762 41.3V49.7C97.9629 48.6267 97.4495 47.9033 96.9362 47.53C96.4229 47.1567 95.9095 46.97 95.3962 46.97C94.9295 46.97 94.4395 47.0867 93.9262 47.32C93.4129 47.5533 92.8995 47.81 92.3862 48.09C91.9195 48.37 91.4295 48.6267 90.9162 48.86C90.4495 49.0467 90.0062 49.0933 89.5862 49L81.4662 49.07L81.5362 15.4H77.2662V14H81.5362V9.17L89.7262 9.1L89.3062 10.22C89.1195 10.6867 88.9095 11.2467 88.6762 11.9C88.4895 12.5067 88.2795 13.2067 88.0462 14H92.6662V15.4H87.6262C87.1129 17.1733 86.6462 19.1333 86.2262 21.28C85.8529 23.38 85.6895 25.4567 85.7362 27.51ZM128.274 29.82C128.274 28.3733 128.134 26.9033 127.854 25.41C127.621 23.87 127.318 22.4233 126.944 21.07C126.571 19.7167 126.174 18.48 125.754 17.36C125.334 16.24 124.984 15.33 124.704 14.63L124.284 13.65L132.474 13.72L132.544 48.72L124.144 48.65C124.331 47.95 124.518 47.25 124.704 46.55C124.891 45.85 125.078 45.1733 125.264 44.52C123.304 46.2933 121.111 47.6467 118.684 48.58C116.304 49.4667 113.971 49.91 111.684 49.91C109.398 49.91 107.344 49.4433 105.524 48.51C103.704 47.53 102.444 45.99 101.744 43.89C101.278 42.4433 101.184 41.1133 101.464 39.9C101.744 38.64 102.188 37.4733 102.794 36.4C103.448 35.28 104.148 34.2067 104.894 33.18C105.641 32.1533 106.224 31.15 106.644 30.17C107.204 28.91 107.228 27.4633 106.714 25.83C106.248 24.1967 105.501 22.61 104.474 21.07C103.494 19.4833 102.374 18.0367 101.114 16.73C99.901 15.3767 98.8277 14.3733 97.8943 13.72H106.294C108.114 14.7 109.514 15.82 110.494 17.08C111.474 18.34 112.128 19.6933 112.454 21.14C112.781 22.5867 112.781 24.1267 112.454 25.76C112.174 27.3933 111.661 29.0967 110.914 30.87C110.588 31.6167 110.284 32.3633 110.004 33.11C109.724 33.8567 109.491 34.65 109.304 35.49C109.164 36.33 109.094 37.2167 109.094 38.15C109.141 39.0367 109.328 40.0167 109.654 41.09C110.308 43.19 111.241 44.7533 112.454 45.78C113.668 46.8067 115.091 47.32 116.724 47.32C119.618 47.32 122.628 45.8033 125.754 42.77C126.454 40.25 127.038 37.94 127.504 35.84C127.971 33.6933 128.228 31.6867 128.274 29.82ZM140.333 32.9C140.333 34.3467 140.45 35.84 140.683 37.38C140.963 38.8733 141.29 40.2967 141.663 41.65C142.037 43.0033 142.433 44.24 142.853 45.36C143.273 46.48 143.623 47.39 143.903 48.09L144.323 49.07L136.133 49L136.063 14L144.463 14.07C144.323 14.5833 144.183 15.0967 144.043 15.61C143.903 16.1233 143.763 16.6367 143.623 17.15C144.323 16.45 145.093 16.1 145.933 16.1C146.587 16.1 147.24 16.2167 147.893 16.45C148.547 16.6833 149.2 16.8 149.853 16.8C150.507 16.8 151.16 16.5667 151.813 16.1C152.467 15.6333 153.12 14.7233 153.773 13.37V21.77C152.793 22.9367 151.86 23.52 150.973 23.52C150.32 23.52 149.713 23.2867 149.153 22.82C148.593 22.3067 148.057 21.77 147.543 21.21C147.03 20.6033 146.54 20.0667 146.073 19.6C145.607 19.0867 145.14 18.83 144.673 18.83C143.973 18.83 143.297 19.5067 142.643 20.86C141.99 23.24 141.453 25.41 141.033 27.37C140.613 29.2833 140.38 31.1267 140.333 32.9ZM188.055 49H179.585L179.725 42.77C177.625 45.15 175.129 46.9 172.235 48.02C169.342 49.14 166.449 49.7 163.555 49.7C162.249 49.7 161.012 49.5367 159.845 49.21C158.679 48.8833 157.652 48.3467 156.765 47.6C155.879 46.8533 155.179 45.8733 154.665 44.66C154.199 43.4467 153.965 41.9533 153.965 40.18C153.965 37.2867 154.665 34.93 156.065 33.11C157.512 31.2433 159.285 29.7967 161.385 28.77C163.485 27.7433 165.725 27.0433 168.105 26.67C170.532 26.2967 172.702 26.11 174.615 26.11C176.015 26.11 177.205 26.18 178.185 26.32C179.165 26.46 179.795 26.6 180.075 26.74C180.262 24.8733 180.169 23.2167 179.795 21.77C179.422 20.2767 178.862 19.04 178.115 18.06C177.415 17.0333 176.529 16.24 175.455 15.68C174.429 15.12 173.355 14.84 172.235 14.84C170.975 14.7933 169.995 15.0733 169.295 15.68C168.595 16.2867 168.012 17.0567 167.545 17.99C167.079 18.8767 166.635 19.8333 166.215 20.86C165.842 21.8867 165.329 22.8433 164.675 23.73C164.069 24.6167 163.229 25.3633 162.155 25.97C161.082 26.53 159.635 26.7633 157.815 26.67L157.605 18.27C158.399 17.8033 159.215 17.29 160.055 16.73C160.942 16.1233 161.969 15.5867 163.135 15.12C164.302 14.6067 165.632 14.1867 167.125 13.86C168.665 13.5333 170.462 13.37 172.515 13.37C173.402 13.37 174.429 13.4167 175.595 13.51C176.809 13.6033 178.045 13.7667 179.305 14C180.565 14.1867 181.779 14.49 182.945 14.91C184.159 15.33 185.185 15.89 186.025 16.59C186.912 17.2433 187.542 18.0367 187.915 18.97C188.335 19.9033 188.382 21.0233 188.055 22.33C187.495 24.5233 186.912 26.6233 186.305 28.63C185.745 30.6367 185.349 32.69 185.115 34.79C184.929 36.8433 185.022 39.0367 185.395 41.37C185.769 43.6567 186.655 46.2 188.055 49ZM180.075 28.07C179.562 27.9767 179.025 27.9067 178.465 27.86C177.905 27.8133 177.345 27.79 176.785 27.79C175.059 27.79 173.332 28.0233 171.605 28.49C169.925 28.91 168.409 29.5867 167.055 30.52C165.702 31.4533 164.582 32.6433 163.695 34.09C162.855 35.49 162.435 37.1933 162.435 39.2C162.435 40.6 162.809 41.9533 163.555 43.26C164.349 44.5667 165.515 45.3833 167.055 45.71C168.549 45.99 169.949 45.9667 171.255 45.64C172.562 45.3133 173.752 44.8467 174.825 44.24C175.945 43.5867 176.925 42.91 177.765 42.21C178.605 41.4633 179.282 40.8567 179.795 40.39L180.075 28.07ZM195.705 25.13C195.658 29.33 196.008 33.3667 196.755 37.24C197.548 41.1133 198.388 44.5667 199.275 47.6L199.695 49.07L191.505 49L191.435 -3.33786e-06L199.835 0.0699958C198.808 3.99 197.875 7.88667 197.035 11.76C196.241 15.6333 195.798 19.6233 195.705 23.73V25.13ZM207.873 25.13C207.826 29.33 208.176 33.3667 208.923 37.24C209.716 41.1133 210.556 44.5667 211.443 47.6L211.863 49.07L203.673 49L203.603 -3.33786e-06L212.003 0.0699958C210.976 3.99 210.043 7.88667 209.203 11.76C208.409 15.6333 207.966 19.6233 207.873 23.73V25.13ZM234.772 49C234.585 49.5133 234.282 50.1667 233.862 50.96C233.442 51.8 233.022 52.6167 232.602 53.41C232.228 54.25 231.878 54.9967 231.552 55.65C231.225 56.3033 231.015 56.7 230.922 56.84C229.522 59.64 227.818 61.7167 225.812 63.07C223.852 64.4233 221.938 65.3567 220.072 65.87C217.925 66.43 215.708 66.6167 213.422 66.43V58.03C214.495 57.9833 215.522 58.0767 216.502 58.31C217.482 58.59 218.415 58.8933 219.302 59.22C220.188 59.5933 221.052 59.92 221.892 60.2C222.732 60.5267 223.548 60.69 224.342 60.69C225.275 60.69 226.185 60.34 227.072 59.64C228.005 58.9867 228.915 57.7733 229.802 56L233.232 49C232.065 48.9533 230.805 48.8833 229.452 48.79C228.145 48.65 226.885 48.4633 225.672 48.23C224.505 47.95 223.432 47.6 222.452 47.18C221.472 46.7133 220.725 46.13 220.212 45.43C219.465 44.45 219.232 43.33 219.512 42.07C219.792 40.81 220.235 39.48 220.842 38.08C221.448 36.68 222.032 35.28 222.592 33.88C223.198 32.4333 223.455 31.0567 223.362 29.75C223.268 28.5367 222.825 27.1833 222.032 25.69C221.285 24.15 220.398 22.6567 219.372 21.21C218.345 19.7167 217.295 18.34 216.222 17.08C215.148 15.7733 214.262 14.7467 213.562 14H221.962C224.015 16.52 225.508 19.0167 226.442 21.49C227.422 23.9633 227.842 26.67 227.702 29.61C227.608 31.4767 227.375 33.25 227.002 34.93C226.628 36.5633 226.512 38.1267 226.652 39.62C226.792 41.0667 227.375 42.4667 228.402 43.82C229.428 45.1267 231.272 46.3867 233.932 47.6C234.818 45.8267 235.705 44.17 236.592 42.63C237.525 41.09 238.318 39.55 238.972 38.01C239.672 36.4233 240.208 34.8133 240.582 33.18C240.955 31.5467 241.072 29.7733 240.932 27.86C240.792 25.9467 240.325 23.87 239.532 21.63C238.738 19.3433 237.525 16.8 235.892 14H244.292C244.805 15.68 245.178 17.2433 245.412 18.69C245.645 20.09 245.738 21.4433 245.692 22.75C245.692 24.0567 245.528 25.3633 245.202 26.67C244.922 27.9767 244.478 29.3767 243.872 30.87C243.172 32.69 242.472 34.3233 241.772 35.77C241.072 37.2167 240.348 38.64 239.602 40.04C238.855 41.3933 238.085 42.7933 237.292 44.24C236.498 45.64 235.658 47.2267 234.772 49Z" fill="black"/>
</svg>