<svg width="32" height="32" viewBox="0 0 32 32" fill="none" xmlns="http://www.w3.org/2000/svg">
<path d="M15.48 15.8533C18.4255 15.8533 20.8133 13.4655 20.8133 10.52C20.8133 7.57446 18.4255 5.18665 15.48 5.18665C12.5345 5.18665 10.1467 7.57446 10.1467 10.52C10.1467 13.4655 12.5345 15.8533 15.48 15.8533Z" stroke="#1C1C1E" stroke-linecap="round" stroke-linejoin="round"/>
<path d="M21.5467 26.7733C22.2468 26.7583 22.9306 26.5599 23.5299 26.1977C24.1292 25.8355 24.623 25.3224 24.9618 24.7096C25.3006 24.0968 25.4726 23.4058 25.4606 22.7056C25.4486 22.0055 25.253 21.3208 24.8933 20.72C23.9443 19.222 22.6319 17.9882 21.0783 17.1332C19.5246 16.2783 17.7801 15.83 16.0067 15.83C14.2334 15.83 12.4888 16.2783 10.9351 17.1332C9.38142 17.9882 8.06908 19.222 7.12002 20.72C6.76041 21.3208 6.56481 22.0055 6.5528 22.7056C6.5408 23.4058 6.71278 24.0968 7.05158 24.7096C7.39038 25.3224 7.88412 25.8355 8.48343 26.1977C9.08273 26.5599 9.76659 26.7583 10.4667 26.7733H21.5467Z" stroke="#1C1C1E" stroke-linecap="round" stroke-linejoin="round"/>
</svg>
