<svg width="32" height="32" viewBox="0 0 32 32" fill="none" xmlns="http://www.w3.org/2000/svg">
<path d="M4.67999 10.6667H27.3467V24.3467C27.3467 25.3156 26.9618 26.2448 26.2766 26.93C25.5915 27.6151 24.6622 28 23.6933 28H8.33333C7.3644 28 6.43516 27.6151 5.75003 26.93C5.0649 26.2448 4.67999 25.3156 4.67999 24.3467V10.6667Z" stroke="#1C1C1E" stroke-linecap="round" stroke-linejoin="round"/>
<path d="M13.9867 4H17.9867C19.0475 4 20.0649 4.42143 20.8151 5.17157C21.5652 5.92172 21.9867 6.93913 21.9867 8V10.6667H9.98666V8C9.98666 6.93913 10.4081 5.92172 11.1582 5.17157C11.9084 4.42143 12.9258 4 13.9867 4Z" stroke="#1C1C1E" stroke-linecap="round" stroke-linejoin="round"/>
</svg>
