<svg width="32" height="32" viewBox="0 0 32 32" fill="none" xmlns="http://www.w3.org/2000/svg">
<path d="M16 28C22.6274 28 28 22.6274 28 16C28 9.37258 22.6274 4 16 4M16 28C9.37258 28 4 22.6274 4 16C4 9.37258 9.37258 4 16 4M16 28V4M5.94667 10H26.2267M15.5867 4.00001C15.5867 4.00001 9.73333 6.53334 9.73333 16C9.73333 25.4667 15.5867 28 15.5867 28M16.4133 4.00001C16.4133 4.00001 22.2667 6.53334 22.2667 16C22.2667 25.4667 16.4133 28 16.4133 28M5.94667 22H26.2267M4.74667 16H27.4133" stroke="#1C1C1E" stroke-linecap="round" stroke-linejoin="round"/>
</svg>
